Patient4_TMGait_0pt7_01_left_12_EMG.mot
version=1
nRows=13
nColumns=33
inDegrees=no
endheader
time	1LAddLong	2LGlutMax	3LGlutMed	4LIliopsoas	5LSemiMemb	6LBicFemLong	7LRecFem	8LVastMed	9LVastLat	10LGasMed	11LTibAnt	12lTibPost	13LPeroneusLong	14LSol	15LExtDigLong	16LFlexDigLong	17RAddLong	18RGlutMax	19RGlutMed	20RIliopsoas	21RSemiMemb	22RBicFemLong	23RRecFem	24RVastMed	25RVastLat	26RGasMed	27RTibAnt	28RTibPost	29RPeroneusLong	30RSol	31RExtDigLong	32RFlexDigLong
14.585	0.040283	0.006561	0.51453	0.008087	0.12085	0.029755	-0.15823	0.000763	-0.036774	-0.35065	-0.004425	0.058136	0.11536	-0.95261	-0.016174	-0.099487	-0.032806	-0.015717	-0.07309	-0.010223	0.46768	1.2506	-0.11704	0.075226	-0.14694	-0.002441	-0.14297	-0.005493	0.066986	-0.15045	-0.00412	-0.003967
14.586	0.019379	0.050354	0.44983	0.022278	0.14389	-0.03067	-0.14526	0.007019	-0.03952	-0.2803	0.001373	-0.027466	0.1091	-0.55939	-0.035553	-0.082397	-0.020294	0.042267	-0.023956	0.013275	0.30563	1.2497	-0.12222	0.040741	0.34698	-0.001831	0.052338	-0.006866	0.10025	-0.14084	-0.000763	0.005188
14.587	0.020905	0.074615	0.49042	0.003815	0.13931	-0.041199	-0.12528	0.001221	-0.043335	-0.17716	0.010834	-0.014801	0.029755	-0.64148	-0.06485	0.42404	-0.019531	-0.005188	0.02655	-0.011902	0.20538	1.1565	-0.098114	0.10132	0.54886	0.003204	-0.31281	-0.004578	0.14847	-0.17807	-0.001068	0.006104
14.588	0.017548	0.070953	0.62927	-0.013885	0.078735	-0.027313	-0.13382	0.005188	-0.043488	-0.16052	0.018463	0.37689	-0.19943	-0.67047	-0.056763	0.020752	-0.009003	-0.054474	0.019073	-0.005798	0.14343	1.0388	-0.11429	-0.071259	0.49881	-0.002899	-0.23499	-0.009766	0.081787	-0.13489	-0.002747	0.003204
14.589	0.010681	0.1062	0.76599	-0.024872	0.053406	0.043488	-0.13412	0.001068	-0.052185	-0.14374	0.034637	0.005951	-0.33936	-0.24262	-0.013885	-0.33218	0.039978	-0.16037	-0.081635	0.02655	0.070038	0.9317	-0.069733	-0.18707	0.49606	-0.010834	-0.16174	-0.00885	-0.083771	-0.10773	-0.001984	-0.006561
14.59	-0.007935	0.12772	0.82443	-0.008087	0.030212	0.12344	-0.12283	0.008392	-0.06134	0.014191	0.012207	-0.38818	-0.25131	0.17761	0.032501	0.2739	0.051575	-0.20325	-0.15671	-0.061798	0.026855	0.8464	-0.003357	0.30716	0.42038	-0.007782	-0.033722	-0.005798	-0.11078	-0.060883	-0.002289	-0.007629
14.591	-0.003662	0.1088	0.7991	0.028992	-0.000458	0.15976	-0.13489	0.004425	-0.032043	0.34134	0.017548	-0.11826	0.022583	0.066681	0.057373	0.092316	0.068207	-0.28793	-0.25452	-0.10956	0.0354	0.81024	0.091858	0.30136	0.27878	-0.007935	-0.16983	-0.010834	-0.042114	0.000763	-0.00061	-0.001221
14.592	-0.009766	0.14694	0.784	0.018768	-0.031281	0.15839	-0.1355	0.003815	-0.025635	0.25482	-0.002899	0.16144	0.16769	0.27847	0.027313	-0.068512	0.075073	-0.50476	-0.31494	-0.12238	0.011902	0.82977	0.15564	0.15213	-0.071411	-0.010223	-0.41245	-0.005341	0.046539	0.05249	-0.00061	-0.007782
14.593	-0.003357	0.13931	0.8635	-0.001373	-0.034027	0.12375	-0.14526	0.000763	-0.013275	0.009766	-0.008698	0.08667	0.071259	0.63767	0.067902	-0.29495	0.055695	-0.63324	-0.31082	-0.15717	0.11612	0.72998	0.078125	-0.059052	-0.42755	-0.00824	-0.13336	-0.009766	0.074158	-0.001373	0.001068	-0.003357
14.594	-0.000305	0.1474	0.93872	0.000458	-0.036774	0.035553	-0.15961	-0.001678	-0.012512	0.25742	0.00885	0.24979	-0.032959	0.84	0.050354	0.19928	0.054779	-0.6337	-0.39597	-0.027161	0.16968	0.66544	0.088806	-0.3865	-0.35645	-0.010681	0.15411	-0.017242	0.023041	-0.047302	0.001984	-0.007019
14.595	-0.007019	0.1532	0.88516	0.001221	-0.017548	-0.04715	-0.14877	0.00412	-0.019836	0.47134	-0.005341	-0.27603	0.020599	0.93613	0.024719	0.009918	0.052643	-0.53589	-0.49896	0.064545	0.28778	0.76523	-0.061493	-0.31998	-0.035706	-0.009766	0.15579	-0.009308	0.005493	-0.084991	-0.000305	0.001984
14.596	-0.010834	0.15106	0.86899	0.00946	-0.067749	-0.10986	-0.14206	0.003357	-0.026245	0.21072	0.000763	-0.10971	0.037384	0.76553	0.022125	-0.49179	0.086975	-0.50507	-0.50156	0.11978	0.15915	0.51727	-0.075531	-0.23651	0.23071	-0.009003	-0.12711	-0.000305	0.045471	-0.02655	-0.000916	-0.008698
14.597	-0.012665	0.19134	0.87326	0.009613	-0.034943	-0.20721	-0.15595	0.001678	-0.02121	0.076752	0.010681	0.092163	0.007477	0.76797	-0.014801	0.1088	0.11688	-0.39642	-0.48721	0.12604	0.071106	0.26932	0.037384	-0.513	0.24582	-0.010986	-0.36438	0.010681	0.1329	0.046692	-0.002899	-0.004272
